<svg width="24" height="24" viewBox="0 0 24 24" fill="none" xmlns="http://www.w3.org/2000/svg">
<g clip-path="url(#clip0_1493_2172)">
<path d="M23.35 19.27L22 13.88V4C22 2.35 20.65 1 19 1H5C3.35 1 2 2.35 2 4V13.88L0.650002 19.27C0.420002 20.17 0.620002 21.11 1.2 21.84C1.77 22.57 2.63 22.99 3.56 22.99H20.44C21.37 22.99 22.23 22.57 22.8 21.84C23.37 21.11 23.57 20.17 23.35 19.27ZM4 4C4 3.45 4.45 3 5 3H19C19.55 3 20 3.45 20 4V13H4V4ZM21.23 20.62C21.04 20.86 20.75 21 20.44 21H3.56C3.25 21 2.96 20.86 2.77 20.62C2.58 20.38 2.51 20.06 2.59 19.76L3.78 15H20.22L21.41 19.76C21.49 20.06 21.41 20.37 21.23 20.62Z" fill="#D0D5DD"/>
<path d="M6 7H9C9.55 7 10 6.55 10 6C10 5.45 9.55 5 9 5H6C5.45 5 5 5.45 5 6C5 6.55 5.45 7 6 7Z" fill="#D0D5DD"/>
<path d="M12 9H6C5.45 9 5 9.45 5 10C5 10.55 5.45 11 6 11H12C12.55 11 13 10.55 13 10C13 9.45 12.55 9 12 9Z" fill="#D0D5DD"/>
</g>
<defs>
<clipPath id="clip0_1493_2172">
<rect width="24" height="24" fill="white"/>
</clipPath>
</defs>
</svg>
