<svg width="25" height="24" viewBox="0 0 25 24" fill="none" xmlns="http://www.w3.org/2000/svg">
<path d="M23.5 13.41V4C23.5 2.35 22.15 1 20.5 1H8.5C6.85 1 5.5 2.35 5.5 4V6H2.5C1.95 6 1.5 6.45 1.5 7V17C1.5 17.55 1.95 18 2.5 18H5.5V20C5.5 21.65 6.85 23 8.5 23H13.91C14.96 23.63 16.18 24 17.5 24C18.89 24 20.18 23.59 21.27 22.89C22.3 22.61 23.11 21.81 23.38 20.78C24.08 19.69 24.49 18.4 24.49 17.01C24.49 15.7 24.12 14.47 23.49 13.42L23.5 13.41ZM3.5 16V8H11.5V13.41C11.03 14.19 10.71 15.06 10.58 16H3.5ZM8.5 21C7.95 21 7.5 20.55 7.5 20V18H10.58C10.74 19.1 11.15 20.12 11.76 21H8.5ZM21.21 17.71C21.01 17.91 20.76 18 20.5 18C20.24 18 19.99 17.9 19.79 17.71L18.5 16.42V20.01C18.5 20.56 18.05 21.01 17.5 21.01C16.95 21.01 16.5 20.56 16.5 20.01V16.42L15.21 17.71C15.01 17.91 14.76 18 14.5 18C14.24 18 13.99 17.9 13.79 17.71C13.4 17.32 13.4 16.69 13.79 16.3L16.79 13.3C16.88 13.21 16.99 13.13 17.12 13.08C17.36 12.98 17.64 12.98 17.88 13.08C18 13.13 18.11 13.2 18.21 13.3L21.21 16.3C21.6 16.69 21.6 17.32 21.21 17.71ZM21.5 11.27C20.36 10.48 18.99 10.01 17.5 10.01C16.01 10.01 14.64 10.48 13.5 11.27V7.01C13.5 6.46 13.05 6.01 12.5 6.01H7.5V4.01C7.5 3.46 7.95 3.01 8.5 3.01H20.5C21.05 3.01 21.5 3.46 21.5 4.01V11.27Z" fill="#344054"/>
<path d="M10.2101 9.29006C9.82008 8.90006 9.19008 8.90006 8.80008 9.29006L7.51008 10.5801L6.22008 9.29006C5.83008 8.90006 5.20008 8.90006 4.81008 9.29006C4.42008 9.68006 4.42008 10.3101 4.81008 10.7001L6.10008 11.9901L4.81008 13.2801C4.42008 13.6701 4.42008 14.3001 4.81008 14.6901C5.01008 14.8901 5.26008 14.9801 5.52008 14.9801C5.78008 14.9801 6.03008 14.8801 6.23008 14.6901L7.52008 13.4001L8.81008 14.6901C9.01008 14.8901 9.26008 14.9801 9.52008 14.9801C9.78008 14.9801 10.0301 14.8801 10.2301 14.6901C10.6201 14.3001 10.6201 13.6701 10.2301 13.2801L8.94008 11.9901L10.2301 10.7001C10.6201 10.3101 10.6201 9.68006 10.2301 9.29006H10.2101Z" fill="#344054"/>
<path d="M18.5 7H15.5C14.95 7 14.5 7.45 14.5 8C14.5 8.55 14.95 9 15.5 9H18.5C19.05 9 19.5 8.55 19.5 8C19.5 7.45 19.05 7 18.5 7Z" fill="#344054"/>
</svg>
